{
	"asset":{
		"version":"2.0",
		"generator":"Created using the official Cinema 4D glTF Exporter. Previous Build: 1.000x279138."
	},
	"scenes":[{
		"nodes":[0]
	}],
	"nodes":[{
		"name":"boat.obj",
		"translation":[0,
		0,
		0],
		"rotation":[0.707,
		0,
		0,
		-0.707],
		"scale":[1,
		1,
		-1],
		"children":[1,
		2,
		3]
	},
	{
		"name":"boat_body",
		"mesh":0
	},
	{
		"name":"sail",
		"mesh":1
	},
	{
		"name":"mast",
		"mesh":2
	}],
	"meshes":[{
		"primitives":[{
			"attributes":{
				"POSITION":1,
				"TEXCOORD_0":2
			},
			"indices":0,
			"material":0
		}]
	},
	{
		"primitives":[{
			"attributes":{
				"POSITION":4,
				"TEXCOORD_0":5
			},
			"indices":3,
			"material":1
		}]
	},
	{
		"primitives":[{
			"attributes":{
				"POSITION":7,
				"TEXCOORD_0":8
			},
			"indices":6,
			"material":2
		}]
	}],
	"accessors":[{
		"bufferView":0,
		"type":"SCALAR",
		"componentType":5123,
		"count":1032,
		"byteOffset":0,
		"min":[0],
		"max":[233]
	},
	{
		"bufferView":1,
		"type":"VEC3",
		"componentType":5126,
		"count":234,
		"byteOffset":0,
		"min":[-124.471,
		0,
		-63.082],
		"max":[124.471,
		51.812,
		63.082]
	},
	{
		"bufferView":1,
		"type":"VEC2",
		"componentType":5126,
		"count":234,
		"byteOffset":12,
		"min":[0.006,
		0.006],
		"max":[0.994,
		0.878]
	},
	{
		"bufferView":2,
		"type":"SCALAR",
		"componentType":5123,
		"count":2928,
		"byteOffset":0,
		"min":[0],
		"max":[561]
	},
	{
		"bufferView":3,
		"type":"VEC3",
		"componentType":5126,
		"count":562,
		"byteOffset":0,
		"min":[-121.102,
		109.162,
		-9.746],
		"max":[53.796,
		247.881,
		9.746]
	},
	{
		"bufferView":3,
		"type":"VEC2",
		"componentType":5126,
		"count":562,
		"byteOffset":12,
		"min":[0.172,
		0.152],
		"max":[0.943,
		0.798]
	},
	{
		"bufferView":4,
		"type":"SCALAR",
		"componentType":5123,
		"count":384,
		"byteOffset":0,
		"min":[0],
		"max":[83]
	},
	{
		"bufferView":5,
		"type":"VEC3",
		"componentType":5126,
		"count":84,
		"byteOffset":0,
		"min":[38.666,
		29.545,
		-5.657],
		"max":[49.979,
		255.535,
		5.657]
	},
	{
		"bufferView":5,
		"type":"VEC2",
		"componentType":5126,
		"count":84,
		"byteOffset":12,
		"min":[0.002,
		0.002],
		"max":[0.213,
		0.998]
	}],
	"bufferViews":[{
		"buffer":0,
		"byteOffset":0,
		"byteLength":2064,
		"target":34963
	},
	{
		"buffer":0,
		"byteOffset":2064,
		"byteLength":4680,
		"target":34962,
		"byteStride":20
	},
	{
		"buffer":1,
		"byteOffset":0,
		"byteLength":5856,
		"target":34963
	},
	{
		"buffer":1,
		"byteOffset":5856,
		"byteLength":11240,
		"target":34962,
		"byteStride":20
	},
	{
		"buffer":2,
		"byteOffset":0,
		"byteLength":768,
		"target":34963
	},
	{
		"buffer":2,
		"byteOffset":768,
		"byteLength":1680,
		"target":34962,
		"byteStride":20
	}],
	"buffers":[{
		"uri":"data:application/octet-stream;base64,",
		"byteLength":6744
	},
	{
		"uri":"data:application/octet-stream;base64,",
		"byteLength":17096
	},
	{
		"uri":"data:application/octet-stream;base64,",
		"byteLength":2448
	}],
	"materials":[{
		"pbrMetallicRoughness":{
			"baseColorFactor":[0.831,
			0.612,
			0.408,
			1],
			"metallicFactor":0,
			"roughnessFactor":0.5
		},
		"emissiveFactor":[0,
		0,
		0],
		"alphaMode":"OPAQUE",
		"doubleSided":false
	},
	{
		"pbrMetallicRoughness":{
			"baseColorFactor":[1,
			1,
			1,
			1],
			"metallicFactor":0,
			"roughnessFactor":0.5
		},
		"emissiveFactor":[0,
		0,
		0],
		"alphaMode":"OPAQUE",
		"doubleSided":false
	},
	{
		"pbrMetallicRoughness":{
			"baseColorFactor":[0.51,
			0.32,
			0.015,
			1],
			"metallicFactor":0,
			"roughnessFactor":0.5
		},
		"emissiveFactor":[0,
		0,
		0],
		"alphaMode":"OPAQUE",
		"doubleSided":false
	}]
}